<svg xmlns="http://www.w3.org/2000/svg" width="17.974" height="23.659" viewBox="0 0 17.974 23.659">
    <g>
        <g>
            <path fill="none" stroke="#676767" stroke-miterlimit="10" stroke-width="1.7px" d="M338.976 100.234a1.065 1.065 0 0 0 .193.027m0 0a6.628 6.628 0 0 1-1.177 2.1c-.111.153-.223.311-.329.464 0 0-.009.014-.014.019a2.017 2.017 0 0 0-.283 1.3v10.748a3.5 3.5 0 0 0 1.238 2.874l.042.028a3.337 3.337 0 0 0 1.761.514l10.178.056a3.1 3.1 0 0 0 1.516-.389.144.144 0 0 0 .032-.023 3.7 3.7 0 0 0 1.488-3.05v-10.725a2.821 2.821 0 0 0-.287-1.33s0-.009-.009-.014c-.148-.223-.32-.445-.482-.658a4.454 4.454 0 0 1-1.033-1.914" transform="translate(-336.497 -78.801) translate(337.349 80.099) translate(-337.349 -96.853)"/>
            <path fill="#4d4e4e" stroke="#4d4e4e" stroke-width="0.5px" d="M417.3 153.606a.35.35 0 0 0-.348.347v4.385a4.042 4.042 0 0 1-.755 2.336.344.344 0 0 0 .083.482.321.321 0 0 0 .2.065.358.358 0 0 0 .287-.144 4.778 4.778 0 0 0 .881-2.739v-4.385a.35.35 0 0 0-.348-.347z" transform="translate(-336.497 -78.801) translate(337.349 80.099) translate(-402.905 -141.159)"/>
            <g>
                <path fill="#f6921e" stroke="#fff" stroke-linecap="round" stroke-linejoin="round" stroke-width="3px" d="M355.565 85.764a9.348 9.348 0 0 1-4.328-1.707c-1.686 1.01-3.563 2.073-5.194 1.585a2.254 2.254 0 0 1-1.779-1.988 2.307 2.307 0 0 1 1.654-2.156c2.142-.8 4.419.882 5.276 1.516l.043.032.043-.032c.857-.634 3.134-2.318 5.276-1.516a2.308 2.308 0 0 1 1.654 2.155 2.254 2.254 0 0 1-1.779 1.988 3 3 0 0 1-.866.123zm-3.555-2.232c1.394.824 2.992 1.662 4.155 1.314a1.422 1.422 0 0 0 1.165-1.222 1.471 1.471 0 0 0-1.1-1.35c-1.546-.579-3.363.635-4.219 1.258zm-4.9-1.411a2.479 2.479 0 0 0-.875.153 1.471 1.471 0 0 0-1.1 1.35 1.423 1.423 0 0 0 1.165 1.222c1.163.348 2.761-.49 4.155-1.314a6.327 6.327 0 0 0-3.339-1.411z" transform="translate(-336.497 -78.801) translate(337.349 80.099) translate(1.161 .199) translate(-344.262 -81.286)"/>
            </g>
            <g>
                <path fill="#f6921e" stroke="#f7931e" stroke-linecap="round" stroke-linejoin="round" stroke-width="0.75px" d="M355.793 84.577a9.348 9.348 0 0 1-4.328-1.707c-1.686 1.01-3.563 2.073-5.194 1.585a2.254 2.254 0 0 1-1.779-1.988 2.308 2.308 0 0 1 1.654-2.155c2.142-.8 4.419.882 5.276 1.516l.043.032.043-.032c.857-.634 3.133-2.318 5.276-1.516a2.308 2.308 0 0 1 1.654 2.155 2.254 2.254 0 0 1-1.78 1.988 3 3 0 0 1-.865.122zm-3.555-2.232c1.394.824 2.991 1.662 4.155 1.314a1.422 1.422 0 0 0 1.165-1.222 1.472 1.472 0 0 0-1.1-1.35c-1.546-.579-3.358.635-4.219 1.258zm-4.9-1.411a2.477 2.477 0 0 0-.874.152 1.471 1.471 0 0 0-1.1 1.35 1.422 1.422 0 0 0 1.165 1.222c1.163.348 2.761-.49 4.155-1.314a6.325 6.325 0 0 0-3.34-1.41z" transform="translate(-336.497 -78.801) translate(337.349 80.099) translate(1.199) translate(-344.49 -80.099)"/>
            </g>
        </g>
    </g>
</svg>
