<svg xmlns="http://www.w3.org/2000/svg" width="21.5" height="21.5" viewBox="0 0 21.5 21.5">
    <defs>
        <style>
            .cls-2{stroke:#545454;stroke-miterlimit:10;stroke-width:1.5px;fill:#545454}
        </style>
    </defs>
    <g id="account" transform="translate(-411.437 -57.582)">
        <path id="Path_1" fill="none" stroke="#545454" stroke-miterlimit="10" stroke-width="1.5px" d="M422.192 58.332a10 10 0 1 0 9.995 10.005 10.033 10.033 0 0 0-9.995-10.005zm0 3a3 3 0 1 1-3 3 2.951 2.951 0 0 1 3-2.999zm0 14.2a7.285 7.285 0 0 1-6-3.2c0-2 4-3.1 6-3.1s6 1.107 6 3.1a7.285 7.285 0 0 1-6 3.196z"/>
        <path id="Path_2" d="M428.327 71.862a7.635 7.635 0 0 1-12.27 0c0-1.93 4.094-3 6.135-3s6.135 1.07 6.135 3z" class="cls-2" transform="translate(0 .67)"/>
        <path id="Path_3" d="M424.757 64.132a2.9 2.9 0 1 1-2.9-2.9 2.852 2.852 0 0 1 2.9 2.9z" class="cls-2" transform="translate(.335 .144)"/>
    </g>
</svg>
