<svg xmlns="http://www.w3.org/2000/svg" width="192" height="192" viewBox="0 0 192 192">
    <defs>
        <clipPath id="clip-path">
            <path id="Rectangle_206" stroke="#707070" d="M0 0H150V147H0z" transform="translate(-.743 .031)"/>
        </clipPath>
        <filter id="Ellipse_81" width="192" height="192" x="0" y="0" filterUnits="userSpaceOnUse">
            <feOffset dy="3"/>
            <feGaussianBlur result="blur" stdDeviation="3"/>
            <feFlood flood-opacity=".161"/>
            <feComposite in2="blur" operator="in"/>
            <feComposite in="SourceGraphic"/>
        </filter>
        <style>
            .cls-5{fill:#fff;stroke:#fff;stroke-miterlimit:10}
        </style>
    </defs>
    <g id="ladu-logo" transform="translate(0 -3)">
        <g filter="url(#Ellipse_81)" transform="translate(0 3)">
            <circle id="Ellipse_81-2" cx="87" cy="87" r="87" fill="#808080" transform="translate(9 6)"/>
        </g>
        <g id="Logo" clip-path="url(#clip-path)" transform="translate(21.743 22.969)">
            <g id="Group_3" transform="translate(7.113 5.835)">
                <g id="Group_2">
                    <g id="Group_1">
                        <path id="Path_1" fill="#fff" stroke="#fff" stroke-miterlimit="10" stroke-width="0.5px" d="M97.9 121.04c-.1-1.147-.2-2.294-.29-3.443a8.573 8.573 0 0 1 .022-1.191c-.046-.53-.107-1.06-.134-1.592-.045-.907-.029-1.818-.127-2.718-.027-.253-.366-.471-.327-.716 0-.647.031-1.295-.006-1.939a27.631 27.631 0 0 1-.192-3.552 5.537 5.537 0 0 0-.809-3.941 1.973 1.973 0 0 1-.231-1.08c-.027-.589.031-1.18.035-1.772.007-1.32 0-2.64 0-4.068a30.377 30.377 0 0 1-4.926 7.713 17.352 17.352 0 0 1-3.682 3.165c-2.219 1.324-4.334 1.122-5.919-1.394a15.084 15.084 0 0 1-1.649-5.037c-.374-1.679-.66-3.38-1.105-5.038-.3-1.112-1.08-1.282-2.04-.68a19.453 19.453 0 0 0-6.607 7.277 10.594 10.594 0 0 0-1.289 7.233 9.552 9.552 0 0 0 2.128 4.814 28.186 28.186 0 0 0 5.313 4.112 14.38 14.38 0 0 0 2.772 1.074 19 19 0 0 1 1.79 1.013 4.506 4.506 0 0 1-1.46.206c-.964-.243-1.887-.641-2.839-.937a7.516 7.516 0 0 0-1.135-.171.988.988 0 0 1-.334-.079c-.522-.3-1.04-.609-1.552-.915l-.223.192.091-.75c-1.329.284-2.034-.651-2.8-1.408a17.972 17.972 0 0 1-2.466-2.747c-.372-.567-.584-1.143-1.295-1.361-.116-.035-.2-.308-.222-.483-.158-1.008-.321-2.017-.432-3.03-.1-.94-.055-1.9-.231-2.825a3.824 3.824 0 0 1 .39-2.618c1.02-1.944 1.2-4.268 2.737-5.989.241-.27.151-.809.333-1.164a6.85 6.85 0 0 1 1.105-1.724c.727-.736 1.651-1.275 2.369-2.006a7.829 7.829 0 0 1 4.563-2.04 4.924 4.924 0 0 1 4.7 2.888c1.091 2.361 1.279 4.907 1.831 7.379.214.956.587 1.876.985 3.119a15.144 15.144 0 0 0 2.035-1.634c1.421-1.642 2.739-3.374 4.133-5.039.552-.658 1.192-1.245 1.805-1.848.974-.959 1.977-1.888 2.92-2.876a1.5 1.5 0 0 0 .191-.889c.116-3.064.347-6.131.283-9.193a7.92 7.92 0 0 1 1.45-4.4c-.952 0-1.767-.007-2.584 0-4.158.039-8.327-.1-12.467.185-2.874.2-5.379-.906-8.037-1.491a16.436 16.436 0 0 1-1.57-.519c-.018-.656.521-.939 1.056-1.057a29.922 29.922 0 0 1 4.247-.758c2.367-.173 4.746-.211 7.121-.231 2.293-.016 4.589.133 6.882.088 3.314-.066 6.626-.231 9.939-.372 2.356-.1 4.709-.288 7.066-.363 2.613-.084 5.23-.127 7.844-.107 1.739.013 3.478.211 5.217.238 1.264.02 2.531-.161 3.8-.151.956 0 1.909.214 2.868.255 1.964.084 3.927.061 5.883.188 1.5.1 3 .338 4.5.545.783.107 1.557.279 2.334.422l.013.323a6.511 6.511 0 0 1-1.271.285c-.733.024-1.469-.082-2.2-.073a9.009 9.009 0 0 0-1.232.208 2.246 2.246 0 0 1-.432 0c-.455-.018-.911-.042-1.366-.062-.037.1.045-.17.009-.068-.44-.084-.313.184-.44-.084a.6.6 0 0 1-.416.125c-.859.077-1.722.144-2.585.15a2.515 2.515 0 0 0-1.693.614 37.316 37.316 0 0 1-3.549 2.294c-1.327.826-2.657 1.64-3.992 2.46l-.009.4c1.064.42 2.13.836 3.192 1.262 1.386.558 2.772 1.125 4.158 1.687a22.637 22.637 0 0 1 5.975 3.746 31.915 31.915 0 0 1 5.429 6.006 17.7 17.7 0 0 1 2.657 6.093 8.178 8.178 0 0 1-.115 3.876 15.508 15.508 0 0 1-2.31 5.64 12.127 12.127 0 0 1-3.823 3.937c-1 .531-1.824 1.4-2.811 1.963-1.039.6-2.186 1.014-3.415 1.567a16.5 16.5 0 0 1 8.94 7.677l-.261.289a23.879 23.879 0 0 0-2.3-2.167 19.678 19.678 0 0 0-4.588-2.926c-1.651-.594-3.5-1.286-5.365-.5a4.988 4.988 0 0 0-.876.365c-.715.48-.676 1.353.129 1.626a12.6 12.6 0 0 0 2.23.358c-.021.84-.708 1.48-1.884 1.683a2.724 2.724 0 0 1-2.965-1.64c-.608-1.537 0-3 1.848-4.231-3.222-.714-6.07-1.848-8.2-4.433a14.361 14.361 0 0 1-3.226-8.395l.341-.151c.258.534.547 1.055.765 1.6.367.931.449 2.13 1.1 2.755.693.673.591 1.987 1.805 2.195a2.769 2.769 0 0 1 0 .641c.961.708 1.848 1.4 2.772 2.034a6.849 6.849 0 0 0 3.13 1.2c.693.087 1.239.331 1.791-.247a.462.462 0 0 1 .444.006c.944.817 1.891.221 2.781-.044a13.934 13.934 0 0 0 2.638-1.155 19.307 19.307 0 0 1 1.885-1.271 6.25 6.25 0 0 0 3.054-2.978 6.037 6.037 0 0 1 .974-1.155c.954-.938.3-2.289.891-3.317 1.451-2.516.5-5.019-.4-7.324a15.992 15.992 0 0 0-3.812-4.9 27.72 27.72 0 0 0-8.527-5.6c-1.587-.739-3.316-1.17-4.96-1.795a8.451 8.451 0 0 1-1.863-.983c-1.8-1.271-2.026-2.946-.943-4.863a8.637 8.637 0 0 1 3.86-3.242 7.451 7.451 0 0 1-1.257.266 4.369 4.369 0 0 1-1.59-.132c-1.085-.381-2.072.247-3.118.18a4.529 4.529 0 0 0-1.116.125c-.726.139-1.446.322-2.174.453s-1.469.254-2.21.318c-.608.052-1.223.01-1.894.01a28.7 28.7 0 0 1 .279 2.916c-.014 2.585-.156 5.17-.149 7.755.009 3.273.116 6.545.178 9.818.044 2.323.125 4.645.1 6.967-.017 1.958-.08 3.927-.265 5.87-.231 2.434-.584 4.857-.938 7.277-.143.974-.429 1.927-.649 2.888l-.36.022a2.568 2.568 0 0 1-.326-.851 13.409 13.409 0 0 0 .1-2.863c-.372-1.683.06-3.361-.222-5.016-.05-.292-.347-.542-.347-.785a10.972 10.972 0 0 0 .122-1.733 29.209 29.209 0 0 1-.237-3.637 5.409 5.409 0 0 0-.755-3.831 1.929 1.929 0 0 1-.286-1.066c-.039-.74-.013-1.485 0-2.228.022-1.048.1-2.1.079-3.142-.062-3.056-.208-6.112-.231-9.168a50.185 50.185 0 0 1 .248-5.939 13.918 13.918 0 0 1 1.105-3.021c-2.189-.358-4.425.054-6.78 0a9.321 9.321 0 0 1 .082 1.05c-.077 2.1-.181 4.208-.254 6.312q-.068 1.952-.068 3.909c0 2.288 0 4.575.047 6.862.023 1.142.231 2.285.2 3.423-.047 2.408-.2 4.815-.29 7.222-.038.981-.031 1.964-.059 2.942-.035 1.155-.082 2.319-.129 3.478-.061 1.529-.045 3.068-.217 4.584s-.537 3.031-.818 4.545z" transform="translate(-37.986 -37.958)"/>
                        <path id="Path_2" d="M52.76 167.521c1.8.714 3.564 1.526 5.4 2.119a34.551 34.551 0 0 0 9.411 1.652 14.2 14.2 0 0 0 3.779-.476 4.778 4.778 0 0 1 4.637 1.122 21.8 21.8 0 0 0 6.5 4 19.586 19.586 0 0 0 11.55 1.2c.658-.133 1.294-.373 1.982-.483a5.516 5.516 0 0 1-2.516 1.6 20.882 20.882 0 0 1-9.282.355 19.187 19.187 0 0 1-9.837-4.48 3.234 3.234 0 0 0-2.195-.834 35.253 35.253 0 0 1-8.028-.638c-3.666-.729-7.251-1.7-10.291-4.033-.423-.325-.809-.7-1.208-1.056z" class="cls-5" transform="translate(-24.442 -44.567)"/>
                        <path id="Path_3" d="M55.249 30.919c-.687.631-1.386 1.249-2.059 1.893q-4.465 4.264-8.919 8.54a14.6 14.6 0 0 0-4 6.761 4.3 4.3 0 0 1-2.748 3.1 24.4 24.4 0 0 0-2.715 1.131 15.338 15.338 0 0 0-6.594 6.679 50.723 50.723 0 0 0-3.891 9.2.535.535 0 0 1-.371.347c.045-.29.079-.583.139-.871a54.037 54.037 0 0 1 3.438-10.52 13.822 13.822 0 0 1 6.871-7.144c.514-.249 1.022-.512 1.537-.76a4.358 4.358 0 0 0 2.463-2.868 8.663 8.663 0 0 1 2.139-3.779 50.146 50.146 0 0 1 3.648-3.69c2.04-1.716 4.2-3.291 6.332-4.895 1.334-1 2.708-1.951 4.068-2.92.178-.127.37-.231.554-.346z" class="cls-5" transform="translate(-19.352 -20.326)"/>
                        <path id="Path_4" d="M146.465 162.128c.41-.218.817-.448 1.234-.655a25.8 25.8 0 0 0 8.251-6.251 23.236 23.236 0 0 0 5.071-11.232 15.94 15.94 0 0 0 .453-4.339 2.8 2.8 0 0 1 1.228-2.194 42.317 42.317 0 0 0 8.432-10.384c.983-1.791 1.683-3.739 2.51-5.618.167-.379.327-.761.49-1.141l.231.047a3.929 3.929 0 0 1-.007.817 29.811 29.811 0 0 1-4.919 11.125c-1.364 1.912-2.839 3.745-4.242 5.628a14.14 14.14 0 0 0-2.447 6.684 16.313 16.313 0 0 1-2.606 7.56 39.777 39.777 0 0 1-3.773 4.2 22.347 22.347 0 0 1-9.022 5.684c-.269.091-.543.165-.814.247z" class="cls-5" transform="translate(-41.068 -36.197)"/>
                        <path id="Path_5" d="M176.461 79.625c-.231-1.271-.375-2.576-.723-3.817q-.976-3.492-2.16-6.923a9.44 9.44 0 0 0-2.985-4.2c-.822-.693-1.545-1.5-2.369-2.184a6.532 6.532 0 0 1-2.426-4.952 14.322 14.322 0 0 0-3.434-8.2c-1.194-1.558-2.369-3.131-3.548-4.7-.2-.269-.382-.556-.571-.834l.142-.143c.43.372.887.716 1.286 1.119 1.875 1.9 3.828 3.728 5.568 5.743a10.039 10.039 0 0 1 2.547 6.281 6.94 6.94 0 0 0 2.458 4.689 13.466 13.466 0 0 1 3.487 4.353 26.551 26.551 0 0 1 1.634 4.916c.535 2.5.84 5.045 1.217 7.575a8.734 8.734 0 0 1 .009 1.288z" class="cls-5" transform="translate(-43.157 -22.611)"/>
                        <path id="Path_6" d="M21.228 100.781c-.182.708-.363 1.417-.547 2.124a23.4 23.4 0 0 0-.693 10.832 7.53 7.53 0 0 0 2.923 4.943 4.86 4.86 0 0 1 1.81 3.9 29.618 29.618 0 0 0 1.795 8.046 38.208 38.208 0 0 0 6.006 10.317.591.591 0 0 1 .109.462 2.331 2.331 0 0 1-.42-.269 30.531 30.531 0 0 1-8.243-13 20.47 20.47 0 0 1-.515-2.756 9.587 9.587 0 0 0-2.119-5.126 12.474 12.474 0 0 1-2.934-8.884 21.668 21.668 0 0 1 .942-6.625c.448-1.374 1.04-2.7 1.563-4.052z" class="cls-5" transform="translate(-18.372 -32.721)"/>
                        <path id="Path_7" d="M121.335 23.7c-.824-.429-1.649-.855-2.471-1.288a25.109 25.109 0 0 0-7.658-2.689 16.3 16.3 0 0 0-9.114 1.212c-1.137.477-2.271.971-3.37 1.526a3.7 3.7 0 0 1-3.474-.007 21.466 21.466 0 0 0-5.2-2.079 18.551 18.551 0 0 0-6.131-.169 46.39 46.39 0 0 1-4.663.489 23.675 23.675 0 0 1 2.323-.945 20.108 20.108 0 0 1 7.854-.77 31.313 31.313 0 0 1 4.182.956c.439.116.85.331 1.281.482a4.44 4.44 0 0 0 3.986-.462 15.691 15.691 0 0 1 6.006-1.782 18.358 18.358 0 0 1 6.37.434c3.525.725 6.521 2.56 9.55 4.344a4.618 4.618 0 0 1 .656.567z" class="cls-5" transform="translate(-29.153 -18.071)"/>
                    </g>
                    <text id="LADU" fill="#fff" stroke="#fff" stroke-miterlimit="10" stroke-width="0.25px" font-family="CourierNewPS-BoldMT, Courier New" font-size="15px" font-weight="700" letter-spacing="0.578em" transform="translate(34.4 101.906)">
                        <tspan x="0" y="0">LADU</tspan>
                    </text>
                </g>
            </g>
        </g>
    </g>
</svg>
