<svg xmlns="http://www.w3.org/2000/svg" width="23.078" height="25.039" viewBox="0 0 23.078 25.039">
    <defs>
        <style>
            .cls-3{stroke:#666;stroke-width:.5px;fill:none;stroke-linecap:round;stroke-linejoin:round}
        </style>
    </defs>
    <g id="tapri_meals" transform="translate(-740.661 -709.258)">
        <g id="Group_21" transform="translate(740.911 714.327)">
            <g id="Group_20">
                <path id="Path_32" fill="#676767" stroke="#666" stroke-miterlimit="10" stroke-width="0.5px" d="M116.441 118.288v-.048c-.048-.048-.048-.1-.1-.1l-10.765-6.526a.175.175 0 0 0-.143-.048L94.292 111a.424.424 0 0 0-.381.238v3.287a.261.261 0 0 0 .191.286l2.763 1.715-2.43 1.574a.432.432 0 0 0-.143.333l.143 4.906a.339.339 0 0 0 .143.286l10.669 7.05c.048 0 .1.048.143.048a.175.175 0 0 0 .143-.048l10.669-7.05a.339.339 0 0 0 .143-.286l.143-4.906a.175.175 0 0 0-.047-.145zm-11.146-6l9.574 5.712-9.86-.238-9.383-6zm9.717 6.43l-2.572 1.619h-6l-.953-1.858zm-20.387-4.382V112l9.669 6.192-1.286 1.238zm2.953 2.572l2.144 1.381-2.191 1.477-2.191-1.381zm7.478 12.813L95.1 123.1l-.1-4.049 10.05 6.24zm.381-5.049l-7.24-4.477 2.239-1.477 2.477 1.524a.355.355 0 0 0 .429-.048l1.477-1.429 1.1 2.143a.319.319 0 0 0 .333.191h5.048zm10.289-1.572l-9.955 6.621v-4.43l10.05-6.24z" transform="translate(-93.911 -111)"/>
            </g>
        </g>
        <path id="Path_33" fill="#6d5a45" d="M153.741 131.486H153.652l-1.212-.619a.993.993 0 0 0-.282-.089l-2.282-.123c-.178-.01-.082.1.216.236.051.024.1.047.159.07l.121.047a5.7 5.7 0 0 0 .667.211h.02a4.753 4.753 0 0 0 .782.129h.121l.106.116c.064.094.044.16-.068.19-.078-.02-.159-.043-.242-.068l-.073-.022c-.175-.052-.356-.11-.54-.172-.124-.042-.25-.086-.376-.132s-.281-.1-.421-.159l-.088-.035h-.008c-.118-.047-.234-.1-.346-.147l-.1-.046-.028-.013-.014-.007-.028-.013-.106-.052q-.159-.079-.278-.15a2.307 2.307 0 0 1-.2-.129c-.108-.079-.166-.144-.169-.19a.081.081 0 0 1-.005-.022c0-.049.053-.069.163-.063l2.114.114c.058 0 .027-.031-.071-.077l-.759-.357a.4.4 0 0 1-.049-.026c-.03-.019-.033-.032 0-.03l.215.012a.728.728 0 0 1 .207.065l.759.357a1.032 1.032 0 0 0 .276.088h.011l.912.049a1.981 1.981 0 0 1 .4.305.352.352 0 0 1 .069.1l-.469-.025c-.058 0-.027.031.071.077l.678.368c.257.125.361.225.236.232z" transform="translate(601.221 587.652)"/>
        <path id="Path_34" d="M123.421 57c.305.14 1.46.7.981 1.423a3.009 3.009 0 0 1-1.4.854" class="cls-3" transform="translate(622.812 654.228)"/>
        <path id="Path_35" d="M143 37c1.948.882 2.105 1.461 1.853 1.834-.232.344-.887.623-1.011 1.2a1 1 0 0 0 .168.759" class="cls-3" transform="translate(606.182 672.963)"/>
        <path id="Path_36" d="M165.112 31c2.418.969 2.717 1.663 2.529 2.122-.248.606-1.368.857-1.488 1.508-.123.671.911 1.245 1.785 1.619" class="cls-3" transform="translate(587.795 678.583)"/>
        <path id="Path_37" d="M199 67a1.983 1.983 0 0 1 .842 1.075 1.375 1.375 0 0 1-.505 1.265" class="cls-3" transform="translate(559.617 644.86)"/>
    </g>
</svg>
